<mxfile host="app.diagrams.net" modified="2022-12-14T14:20:37.123Z" agent="5.0 (Windows NT 10.0; Win64; x64) AppleWebKit/537.36 (KHTML, like Gecko) Chrome/108.0.0.0 Safari/537.36" version="20.6.2" etag="cYazOMFkPt9hDI4tJmGJ" type="github">
  <diagram id="jI_14wXbAnPfsgh5TmdF" name="Page-1">
    <mxGraphModel dx="2213" dy="613" grid="1" gridSize="10" guides="1" tooltips="1" connect="1" arrows="1" fold="1" page="1" pageScale="1" pageWidth="850" pageHeight="1100" math="0" shadow="0">
      <root>
        <mxCell id="0" />
        <mxCell id="1" parent="0" />
        <mxCell id="Fv6UNAdMZOATSZhJQNrP-2" value="Image" style="rounded=0;whiteSpace=wrap;html=1;" vertex="1" parent="1">
          <mxGeometry y="160" width="850" height="310" as="geometry" />
        </mxCell>
        <mxCell id="Fv6UNAdMZOATSZhJQNrP-3" value="Section" style="text;html=1;align=center;verticalAlign=middle;resizable=0;points=[];autosize=1;strokeColor=none;fillColor=none;" vertex="1" parent="1">
          <mxGeometry x="10" y="105" width="60" height="30" as="geometry" />
        </mxCell>
        <mxCell id="Fv6UNAdMZOATSZhJQNrP-4" value="Section" style="text;html=1;align=center;verticalAlign=middle;resizable=0;points=[];autosize=1;strokeColor=none;fillColor=none;" vertex="1" parent="1">
          <mxGeometry x="70" y="105" width="60" height="30" as="geometry" />
        </mxCell>
        <mxCell id="Fv6UNAdMZOATSZhJQNrP-5" value="Section" style="text;html=1;align=center;verticalAlign=middle;resizable=0;points=[];autosize=1;strokeColor=none;fillColor=none;" vertex="1" parent="1">
          <mxGeometry x="130" y="105" width="60" height="30" as="geometry" />
        </mxCell>
        <mxCell id="Fv6UNAdMZOATSZhJQNrP-6" value="Section" style="text;html=1;align=center;verticalAlign=middle;resizable=0;points=[];autosize=1;strokeColor=none;fillColor=none;" vertex="1" parent="1">
          <mxGeometry x="190" y="105" width="60" height="30" as="geometry" />
        </mxCell>
        <mxCell id="Fv6UNAdMZOATSZhJQNrP-7" value="Section" style="text;html=1;align=center;verticalAlign=middle;resizable=0;points=[];autosize=1;strokeColor=none;fillColor=none;" vertex="1" parent="1">
          <mxGeometry x="250" y="105" width="60" height="30" as="geometry" />
        </mxCell>
        <mxCell id="Fv6UNAdMZOATSZhJQNrP-8" value="Section" style="text;html=1;align=center;verticalAlign=middle;resizable=0;points=[];autosize=1;strokeColor=none;fillColor=none;" vertex="1" parent="1">
          <mxGeometry x="320" y="105" width="60" height="30" as="geometry" />
        </mxCell>
        <mxCell id="Fv6UNAdMZOATSZhJQNrP-9" value="Section" style="text;html=1;align=center;verticalAlign=middle;resizable=0;points=[];autosize=1;strokeColor=none;fillColor=none;" vertex="1" parent="1">
          <mxGeometry x="380" y="105" width="60" height="30" as="geometry" />
        </mxCell>
        <mxCell id="Fv6UNAdMZOATSZhJQNrP-10" value="Section" style="text;html=1;align=center;verticalAlign=middle;resizable=0;points=[];autosize=1;strokeColor=none;fillColor=none;" vertex="1" parent="1">
          <mxGeometry x="440" y="105" width="60" height="30" as="geometry" />
        </mxCell>
        <mxCell id="Fv6UNAdMZOATSZhJQNrP-12" value="Search" style="rounded=1;whiteSpace=wrap;html=1;" vertex="1" parent="1">
          <mxGeometry x="680" y="110" width="130" height="20" as="geometry" />
        </mxCell>
        <mxCell id="Fv6UNAdMZOATSZhJQNrP-14" value="" style="shape=image;html=1;verticalAlign=top;verticalLabelPosition=bottom;labelBackgroundColor=#ffffff;imageAspect=0;aspect=fixed;image=https://cdn0.iconfinder.com/data/icons/evericons-24px-vol-1/24/menu-dots-128.png" vertex="1" parent="1">
          <mxGeometry x="630" y="107" width="28" height="28" as="geometry" />
        </mxCell>
        <mxCell id="Fv6UNAdMZOATSZhJQNrP-15" value="" style="shape=image;html=1;verticalAlign=top;verticalLabelPosition=bottom;labelBackgroundColor=#ffffff;imageAspect=0;aspect=fixed;image=https://cdn0.iconfinder.com/data/icons/evericons-24px-vol-1/24/menu-dots-128.png;clipPath=inset(71.09% 0% 4.69% 0%);" vertex="1" parent="1">
          <mxGeometry x="402" y="450" width="45.42" height="11" as="geometry" />
        </mxCell>
        <mxCell id="Fv6UNAdMZOATSZhJQNrP-16" value="Deal" style="rounded=0;whiteSpace=wrap;html=1;" vertex="1" parent="1">
          <mxGeometry x="60" y="510" width="150" height="80" as="geometry" />
        </mxCell>
        <mxCell id="Fv6UNAdMZOATSZhJQNrP-17" value="Deal" style="rounded=0;whiteSpace=wrap;html=1;" vertex="1" parent="1">
          <mxGeometry x="252" y="510" width="150" height="80" as="geometry" />
        </mxCell>
        <mxCell id="Fv6UNAdMZOATSZhJQNrP-18" value="Deal" style="rounded=0;whiteSpace=wrap;html=1;" vertex="1" parent="1">
          <mxGeometry x="630" y="510" width="150" height="80" as="geometry" />
        </mxCell>
        <mxCell id="Fv6UNAdMZOATSZhJQNrP-19" value="Deal" style="rounded=0;whiteSpace=wrap;html=1;" vertex="1" parent="1">
          <mxGeometry x="440" y="510" width="150" height="80" as="geometry" />
        </mxCell>
        <mxCell id="Fv6UNAdMZOATSZhJQNrP-20" value="New In" style="rounded=0;whiteSpace=wrap;html=1;" vertex="1" parent="1">
          <mxGeometry x="60" y="770" width="290" height="350" as="geometry" />
        </mxCell>
        <mxCell id="Fv6UNAdMZOATSZhJQNrP-21" value="New In" style="rounded=0;whiteSpace=wrap;html=1;" vertex="1" parent="1">
          <mxGeometry x="390" y="820" width="400" height="140" as="geometry" />
        </mxCell>
        <mxCell id="Fv6UNAdMZOATSZhJQNrP-22" value="New In" style="rounded=0;whiteSpace=wrap;html=1;" vertex="1" parent="1">
          <mxGeometry x="390" y="980" width="400" height="140" as="geometry" />
        </mxCell>
        <mxCell id="Fv6UNAdMZOATSZhJQNrP-23" value="&lt;h1&gt;Seasonal Section&lt;/h1&gt;" style="text;html=1;align=center;verticalAlign=middle;resizable=0;points=[];autosize=1;strokeColor=none;fillColor=none;" vertex="1" parent="1">
          <mxGeometry x="480" y="750" width="220" height="70" as="geometry" />
        </mxCell>
        <mxCell id="Fv6UNAdMZOATSZhJQNrP-24" value="" style="endArrow=none;dashed=1;html=1;dashPattern=1 3;strokeWidth=2;rounded=0;" edge="1" parent="1">
          <mxGeometry width="50" height="50" relative="1" as="geometry">
            <mxPoint y="680" as="sourcePoint" />
            <mxPoint x="850" y="680" as="targetPoint" />
          </mxGeometry>
        </mxCell>
        <mxCell id="Fv6UNAdMZOATSZhJQNrP-25" value="Menu&lt;br&gt;Menu&lt;br&gt;Menu&lt;br&gt;Menu&lt;br&gt;Menu&lt;br&gt;Menu&lt;br&gt;Menu&lt;br&gt;Menu&lt;br&gt;" style="text;html=1;align=center;verticalAlign=middle;resizable=0;points=[];autosize=1;strokeColor=none;fillColor=none;" vertex="1" parent="1">
          <mxGeometry x="170" y="1190" width="50" height="130" as="geometry" />
        </mxCell>
        <mxCell id="Fv6UNAdMZOATSZhJQNrP-26" value="Menu&lt;br&gt;Menu&lt;br&gt;Menu&lt;br&gt;Menu&lt;br&gt;Menu&lt;br&gt;Menu&lt;br&gt;Menu&lt;br&gt;Menu&lt;br&gt;" style="text;html=1;align=center;verticalAlign=middle;resizable=0;points=[];autosize=1;strokeColor=none;fillColor=none;" vertex="1" parent="1">
          <mxGeometry x="565" y="1190" width="50" height="130" as="geometry" />
        </mxCell>
        <mxCell id="Fv6UNAdMZOATSZhJQNrP-27" value="" style="endArrow=none;dashed=1;html=1;dashPattern=1 3;strokeWidth=2;rounded=0;" edge="1" parent="1">
          <mxGeometry width="50" height="50" relative="1" as="geometry">
            <mxPoint x="10" y="1170" as="sourcePoint" />
            <mxPoint x="860" y="1170" as="targetPoint" />
          </mxGeometry>
        </mxCell>
      </root>
    </mxGraphModel>
  </diagram>
</mxfile>
